<?xml version="1.0" encoding="UTF-8"?>
<svg width="48px" height="46px" viewBox="0 0 48 46" version="1.1" xmlns="http://www.w3.org/2000/svg" xmlns:xlink="http://www.w3.org/1999/xlink">
    <title>71E14238-72D9-48E7-A7CE-32E1F74BF8BC</title>
    <g id="Users-app" stroke="none" stroke-width="1" fill="none" fill-rule="evenodd">
        <g id="Users-–-list-–-snackbar" transform="translate(-47.000000, -7.000000)" fill="#FFFFFF" fill-rule="nonzero" stroke="#FFFFFF">
            <g id="Header">
                <path d="M68.030032,29.086743 C68.1724431,28.9763728 68.3807437,28.9706634 68.5295322,29.0734224 C69.394599,29.6671581 70.2001918,30.4035795 70.9207362,31.2655875 C71.0142573,31.3797652 71.0270119,31.5300941 70.9483679,31.6537858 C68.3913658,35.6937026 67.7600814,40.8770526 67.6793099,44.5154621 L67.6793099,44.5154621 C67.6257827,46.9915068 67.8107018,49.0066911 67.9254817,49.9866863 C67.9467357,50.167462 67.8149515,50.331114 67.6194055,50.3710752 C62.2504192,51.4519587 57.3617414,52 53.0915282,52 C51.850246,52 50.6131536,51.9486205 49.4143684,51.8477663 C49.244326,51.8325429 49.1040441,51.7240795 49.0657842,51.5756504 C48.951026,51.1416017 46.3026091,40.8564502 49.8118486,33.6861217 C50.5260266,32.2265781 51.4569883,30.9877613 52.5813902,30.0058661 C52.7153019,29.8878867 52.9214749,29.8726634 53.0766406,29.9620988 C55.1066474,31.159021 57.4680873,31.7927029 59.906087,31.7927029 C62.8883855,31.7927029 65.7727397,30.8317064 68.030032,29.086743 Z M50.1329273,34.8846426 C47.6120339,41.1717722 49.412372,49.615164 49.7779658,51.1641479 C50.8619928,51.247875 51.9757841,51.2897395 53.0938195,51.2897395 C57.2149913,51.2897395 61.9274779,50.7701993 67.1073771,49.7483093 C66.9968468,48.7207685 66.8565648,46.9510579 66.886322,44.8178864 C66.7205293,44.7950518 66.5611139,44.770314 66.3974488,44.7474789 C66.2741694,44.7303503 66.1487625,44.7132242 66.0254831,44.6941947 C65.7789407,44.6561339 65.5387538,44.6161736 65.3006944,44.5762124 C65.2007911,44.5590877 65.1008933,44.5438643 65.0031175,44.5267377 C64.7140183,44.4753582 64.4313507,44.4201741 64.1529056,44.36499 C64.1103977,44.3573783 64.0657601,44.3497666 64.023249,44.3402521 C63.6959514,44.2736493 63.3749767,44.2032418 63.0625231,44.1309296 C63.0433929,44.127124 63.0263887,44.1214151 63.0093844,44.1176095 C62.7224073,44.0510066 62.4418564,43.9805992 62.1655389,43.908287 C62.0826453,43.8854543 62.0018738,43.8626193 61.9189802,43.8397842 C61.7128017,43.7846001 61.5066287,43.7275113 61.3068276,43.6685225 C61.2090573,43.6399757 61.1155313,43.6095309 61.0198831,43.580987 C60.8392083,43.5258029 60.6585389,43.4706188 60.4842469,43.4135299 C60.3843436,43.3811833 60.2865733,43.34693 60.1887975,43.3145804 C60.0251324,43.2574916 59.8614673,43.2004076 59.6999243,43.1433188 C59.6000265,43.1071627 59.5043783,43.0710061 59.4066026,43.0348504 C59.2514423,42.9777616 59.0984041,42.918768 58.9496157,42.8597793 C58.8539675,42.8198185 58.7583194,42.7817601 58.6647933,42.7437017 C58.52026,42.6847129 58.3757213,42.6238195 58.2354377,42.5610212 L58.2354377,42.5610212 L57.9654974,42.441139 C57.8252138,42.3764361 57.6870523,42.311738 57.5510184,42.2470399 C57.4659972,42.2070791 57.3830982,42.1671189 57.3002046,42.1271577 C57.1620485,42.0586549 57.0281367,41.9901474 56.8942304,41.9197399 C56.8198362,41.8816839 56.7433144,41.8436235 56.6710477,41.8036623 C56.5286366,41.7256407 56.3883529,41.6457192 56.2501915,41.5676976 C56.1928015,41.5334463 56.1332894,41.5010977 56.0758994,41.4687482 C55.89523,41.3640894 55.7209379,41.2575258 55.5508956,41.1490574 C55.5381421,41.1395425 55.5253892,41.1319308 55.5126363,41.1243191 C55.3277172,41.0063368 55.14917,40.8864497 54.9748779,40.7665675 C54.9344922,40.7380206 54.8941059,40.7075758 54.8537207,40.6790319 C54.7261916,40.5876917 54.5986571,40.4963515 54.4753777,40.4050113 L54.4753777,40.4050113 L54.3074629,40.2737103 C54.2054375,40.1937889 54.1034121,40.1157673 54.0056363,40.0358458 C53.9439966,39.9863662 53.8866121,39.9368915 53.8270945,39.8874167 C53.7378182,39.8131998 53.6485473,39.7389877 53.5635261,39.6628708 C53.5040086,39.6095915 53.4444965,39.5563121 53.3871065,39.5030279 C53.306335,39.4307205 53.2276911,39.3565036 53.1490471,39.2822915 C53.0916572,39.2271074 53.0363947,39.1738231 52.9811323,39.118639 C52.9067381,39.0444269 52.8323439,38.97021 52.7600772,38.8959979 C52.7069369,38.8408138 52.6537999,38.7837249 52.6006618,38.7285408 C52.5305173,38.6543287 52.4625003,38.5801118 52.3966109,38.5058997 C52.3455982,38.4507156 52.2967093,38.3936267 52.2478225,38.3384426 C52.1819331,38.2623258 52.1181659,38.1862089 52.0565262,38.1100921 C52.0097632,38.054908 51.9651283,37.9997239 51.9204923,37.9445398 C51.8588526,37.8646183 51.7972075,37.7846968 51.7376953,37.7066752 C51.6994372,37.653391 51.6569249,37.6020164 51.6186657,37.5487322 C51.5549039,37.4611966 51.4932642,37.3755657 51.4337466,37.2880302 C51.4018657,37.24236 51.3678561,37.1985947 51.3380985,37.1529246 C51.2530773,37.0273281 51.1723058,36.9017366 51.0936618,36.776145 C51.0830338,36.7571141 51.0702809,36.7380851 51.0596534,36.7190561 C50.9852646,36.5991691 50.9151201,36.4792869 50.8471031,36.3613045 C50.8194719,36.3137297 50.793965,36.2661577 50.7684592,36.2185848 C50.7195686,36.1348587 50.6749337,36.0492279 50.6302977,35.9654969 L50.6302977,35.9654969 L50.4902813,35.6857694 L50.4902813,35.6857694 L50.4347517,35.5715941 C50.4071205,35.5145101 50.3816141,35.4574213 50.3561078,35.4003324 C50.3242214,35.3261203 50.2902146,35.2538081 50.258332,35.179596 C50.2328268,35.122512 50.2094463,35.0654232 50.1860654,35.0083343 C50.1669357,34.9683736 50.1499315,34.9265071 50.1329273,34.8846426 Z M75.3201246,29.0787548 C75.447166,28.9750129 75.628392,28.9731297 75.7573035,29.0768687 C77.4201483,30.4160497 79.4322827,31.2290225 81.5789581,31.4289581 C81.9077773,31.4610223 82.2590136,31.477998 82.5971737,31.477998 C84.8950819,31.477998 87.092216,30.7763451 88.9511566,29.44658 C89.0856736,29.3503834 89.2687649,29.363585 89.3902056,29.4767591 C93.8913078,33.7089633 94.1734179,41.8688704 93.9436176,46.3542625 C93.8632804,47.8915152 93.728763,48.8666939 93.723158,48.90819 C93.7026062,49.0515433 93.5979819,49.1665992 93.4578595,49.2005509 C93.3827692,49.219431 85.8593855,51 77.9844642,51 C75.2173609,51 72.7288092,50.7887364 70.5839992,50.3718877 C70.4364012,50.3435966 70.3243057,50.2247632 70.3037543,50.0757555 C70.2383731,49.5948208 68.7194436,38.2344285 73.1435566,31.5307975 C73.7825421,30.5650651 74.5148882,29.7389294 75.3201246,29.0787548 Z M73.2016823,32.7907131 C69.8910587,38.805777 70.7766322,48.0953012 70.965329,49.730624 C73.0095084,50.1078729 75.3708847,50.2983781 77.9865161,50.2983781 C85.0033985,50.2983781 91.7369465,48.870538 93.0634151,48.5725178 C93.1027587,48.236795 93.1737549,47.5634381 93.2335402,46.6655967 C92.9532667,46.646736 92.6842376,46.6222165 92.4114683,46.5976961 C92.2376987,46.5826065 92.0583427,46.5712891 91.8864576,46.5543135 C91.4941225,46.516592 91.1148731,46.4713213 90.7393448,46.4241666 L90.7393448,46.4241666 L90.425472,46.3883287 C89.9491026,46.3241993 89.4857473,46.2544106 89.0354874,46.1770748 L89.0354874,46.1770748 L88.7832699,46.12992 C88.424558,46.0657857 88.0714612,45.9978851 87.7295657,45.9262084 C87.5838378,45.8960293 87.4455855,45.8601938 87.3017277,45.8281286 C87.0289632,45.7658824 86.7561891,45.7036409 86.494626,45.6376234 C86.3395572,45.5980139 86.1882239,45.5546323 86.0350252,45.5131357 C85.7977301,45.4490014 85.5623242,45.384872 85.3325239,45.3150833 C85.1774551,45.2679266 85.0261265,45.2188867 84.8747932,45.1698468 C84.6580929,45.1000582 84.4432389,45.0302647 84.2339903,44.9567049 C84.0863971,44.9057818 83.9406692,44.8510779 83.7968114,44.7982668 C83.5950288,44.7247022 83.3969911,44.6473712 83.2026889,44.5700353 C83.0625664,44.5134482 82.9243141,44.4568611 82.7879271,44.3983909 C82.5992064,44.3191719 82.4142497,44.2361816 82.2330237,44.1531866 C82.1022469,44.0928283 81.9733307,44.0343581 81.8462893,43.9721118 C81.6669142,43.8853456 81.493159,43.7966913 81.3212786,43.7080419 C81.2035733,43.6457957 81.0840026,43.5835542 80.9700375,43.5213079 C80.7981475,43.4269945 80.6318726,43.3289147 80.4655929,43.2327181 C80.3609686,43.1704767 80.254479,43.1101184 80.1535901,43.0478721 C79.9816906,42.9422452 79.8191511,42.832847 79.6547415,42.725332 C79.5687989,42.6668618 79.4791209,42.6121579 79.3950484,42.5536876 C79.2045055,42.4235407 79.0232795,42.2896177 78.8439235,42.1556996 C78.7953444,42.1179733 78.7411645,42.0821379 78.6925902,42.0444135 C78.4665204,41.8689785 78.2479309,41.6916749 78.0386823,41.5124881 C78.0069196,41.4841922 77.9788951,41.4558996 77.9471343,41.4294931 C77.7715137,41.2785974 77.6033639,41.1258137 77.4408244,40.9711468 C77.3773037,40.9107886 77.3175184,40.8485423 77.255863,40.788184 C77.132557,40.6674675 77.0073809,40.5448629 76.8915457,40.4203752 C76.8242848,40.3505866 76.7626342,40.2789099 76.6972434,40.2072333 C76.5926239,40.0921759 76.4898649,39.9752305 76.3908461,39.8601732 C76.3254553,39.7847254 76.2638047,39.7073895 76.2021493,39.6319417 C76.1106012,39.5206555 76.019058,39.4074862 75.9331154,39.294312 C75.8733301,39.215093 75.8154101,39.1377571 75.7574948,39.0585381 C75.6752876,38.9472519 75.5949553,38.8340826 75.5183536,38.7227964 C75.4641737,38.6416942 75.4099891,38.5624704 75.3576794,38.4832513 C75.2848178,38.3719652 75.2138216,38.2587958 75.1446954,38.1475097 L75.1446954,38.1475097 L75.0008376,37.9098478 C74.9335815,37.7985616 74.8700608,37.6853923 74.8084054,37.5722181 C74.7654365,37.4948822 74.7224662,37.4175512 74.681364,37.3402154 C74.6215787,37.225158 74.5636635,37.1101007 74.5076135,36.9950433 C74.4702501,36.9214835 74.4328833,36.8479188 74.3992539,36.774359 C74.3413386,36.6517545 74.2890241,36.5329259 74.2367143,36.4122094 L74.2367143,36.4122094 L74.1507718,36.216045 C74.0928565,36.0764677 74.0405468,35.9387736 73.9882322,35.8029675 C73.96955,35.7558108 73.9508669,35.7105421 73.9340524,35.6652734 C73.8667963,35.4841937 73.8051409,35.3031189 73.7472257,35.1258153 L73.7472257,35.1258153 L73.7210694,35.0371659 C73.6762304,34.8919294 73.63139,34.7448097 73.5902878,34.6014564 C73.5716061,34.5410981 73.5585284,34.4826279 73.5417134,34.4222696 C73.5118208,34.3109883 73.4819267,34.2015853 73.4557709,34.0921871 C73.4389564,34.0261697 73.4258782,33.9620402 73.4109319,33.8960227 C73.3885119,33.796055 73.3660924,33.6960872 73.3455411,33.5998906 C73.3324629,33.5338731 73.3212534,33.4697437 73.3081753,33.4037262 C73.2894921,33.3113056 73.2726771,33.2188802 73.2577308,33.1283428 C73.2465213,33.0642085 73.2353118,33.0000791 73.22597,32.9359496 C73.2166286,32.8869097 73.2091555,32.8378679 73.2016823,32.7907131 Z M75.5485031,29.8049314 C74.9077002,30.3651527 74.3191736,31.042276 73.7829711,31.821284 C73.7867074,31.8646646 73.7904442,31.9118214 73.7941806,31.9570901 C73.7997856,32.0193315 73.8053906,32.0815778 73.8128637,32.1457072 C73.8222051,32.2154959 73.8296782,32.2871725 73.8390196,32.3588492 L73.8390196,32.3588492 L73.8651759,32.5606728 C73.8745172,32.6361206 73.8875954,32.7134565 73.8988049,32.7889043 C73.9100149,32.8586929 73.9193562,32.9303696 73.9324344,33.0020463 C73.945512,33.0793773 73.962327,33.1604843 73.9772733,33.2415913 C73.990351,33.3170392 74.0052974,33.390599 74.0202437,33.4660468 C74.0370596,33.5490419 74.0576109,33.6339201 74.0762936,33.7187983 L74.0762936,33.7187983 L74.1304734,33.950801 C74.1510252,34.0394504 74.175312,34.1281046 74.1995996,34.216754 C74.2220201,34.2959779 74.2425709,34.3751969 74.2649904,34.4544159 C74.2911477,34.5449533 74.3210389,34.6373739 74.3490629,34.7297993 C74.3752202,34.8109064 74.3976401,34.8920134 74.4256646,34.9731204 C74.4574274,35.067429 74.4929245,35.1636256 74.5265535,35.2579342 C74.5564462,35.3390412 74.5844707,35.4220315 74.6162315,35.5050265 C74.6535949,35.6031111 74.694698,35.7011957 74.733932,35.7992755 C74.7675601,35.8822657 74.8011886,35.9652559 74.8366862,36.0482509 C74.8796599,36.1482187 74.9263661,36.2481865 74.9730733,36.3500423 C75.0123068,36.4330325 75.0478059,36.5160227 75.0889085,36.5990177 C75.139353,36.7008735 75.1954029,36.8065005 75.2495827,36.9102395 C75.2906816,36.9913465 75.3317852,37.0724535 75.3766241,37.1554437 C75.4364094,37.2629539 75.4999301,37.3685809 75.5615855,37.4760958 C75.6101647,37.5572029 75.6550037,37.6364219 75.7035781,37.7175289 C75.7708389,37.8269271 75.8437005,37.9344421 75.9146967,38.0438402 C75.9651412,38.1230593 76.0137156,38.2003951 76.0678954,38.2796141 C76.1444923,38.3909003 76.2285648,38.5040696 76.310772,38.6153558 L76.3929768,38.7275836 L76.3929768,38.7275836 L76.4751816,38.8398113 C76.5648596,38.9586447 76.6638784,39.0755852 76.7591619,39.1925306 C76.8152118,39.2623192 76.8675263,39.3302247 76.9254416,39.3981253 C77.0319312,39.522613 77.1458963,39.6471008 77.2579962,39.7697053 C77.3140461,39.8300636 77.3663558,39.8904219 77.4224058,39.9507801 C77.5475819,40.0828151 77.6820988,40.21485 77.8166158,40.3449969 C77.8670602,40.3940368 77.9137693,40.4449647 77.966079,40.4940046 C78.1360989,40.6562186 78.3154548,40.8146615 78.5004162,40.9730996 L78.5004162,40.9730996 L78.5602016,41.0259155 C78.9767856,41.3786492 79.4289539,41.7219188 79.9184282,42.0538892 L79.9184282,42.0538892 L80.028658,42.1236779 C80.2397862,42.2632552 80.4546403,42.4009493 80.6788352,42.5367554 C80.7573022,42.5839121 80.8413747,42.6272948 80.9217118,42.6744495 C81.1103943,42.7838477 81.3009611,42.8951339 81.4989988,43.0007608 C81.5998877,43.0554599 81.7082474,43.106383 81.8128717,43.1591989 C81.9996984,43.2535123 82.1846598,43.3497041 82.3808321,43.4421295 C82.5004028,43.4987117 82.6293142,43.5515276 82.7526203,43.6062267 C82.9413075,43.6911049 83.128139,43.7759831 83.3261766,43.8570902 C83.4625637,43.9136773 83.6064215,43.9646052 83.7446738,44.0193042 C83.9408557,44.0966401 84.1332879,44.1720879 84.336931,44.2456478 C84.4882596,44.3003468 84.6489338,44.3493867 84.8040026,44.4022026 C85.0076218,44.4701081 85.2075295,44.5398967 85.4167781,44.6040262 C85.5811829,44.6549541 85.7568035,44.7002228 85.9268186,44.7492627 C86.1379181,44.809621 86.3471667,44.8718624 86.5657561,44.9284495 C86.7451312,44.9756014 86.9356981,45.0170989 87.1206595,45.0623676 C87.3411047,45.1132955 87.5578288,45.1679946 87.7857591,45.2170345 C87.9819219,45.2585271 88.185565,45.296253 88.3873428,45.335863 C88.6171289,45.3792485 88.845064,45.4264018 89.0823351,45.4678979 C89.2934729,45.5037362 89.5120624,45.5358019 89.7269165,45.5697537 C89.967923,45.6074752 90.2070499,45.6452006 90.455532,45.6791519 C90.6815922,45.709331 90.915128,45.7357404 91.1449284,45.7621469 C91.3990399,45.792326 91.6493873,45.8225061 91.9090803,45.8489131 C92.1482216,45.8734355 92.3985929,45.8904111 92.6452049,45.9111594 C92.8507277,45.926249 93.0562409,45.9432246 93.2654895,45.9583142 C93.4541719,41.6033442 93.108565,34.1677364 89.1178715,30.1859737 C87.1915888,31.4930924 84.9439959,32.181563 82.5974463,32.181563 C82.2368691,32.181563 81.8632205,32.1627008 81.5138495,32.1306351 C79.3277637,31.9269138 77.2708141,31.1234245 75.5482319,29.8049314 Z M68.2979921,29.8134876 C65.9342669,31.5508515 62.9692174,32.5022999 59.9063324,32.5022999 C57.4235503,32.5022999 55.0131927,31.883817 52.9152778,30.711642 C51.9909649,31.571888 51.2130142,32.6261246 50.6008616,33.8496937 C50.6157404,33.8953638 50.6306187,33.9410339 50.6454976,33.986704 C50.6646278,34.0437929 50.6837579,34.098977 50.7028876,34.1560658 C50.7241415,34.2226687 50.7496479,34.2911714 50.7751542,34.3577743 C50.7964076,34.4167679 50.8176626,34.4738567 50.8410436,34.5328454 C50.8665527,34.5994483 50.8941828,34.667951 50.9218151,34.7345538 C50.9451966,34.7935474 50.970703,34.8544409 50.9962093,34.9134297 C51.0238405,34.9800325 51.0557225,35.0485352 51.0854802,35.1151381 C51.1131114,35.1760315 51.1386167,35.236925 51.1683738,35.2978185 C51.2002548,35.3644213 51.2342632,35.4329241 51.2682717,35.4995269 C51.2980305,35.5623203 51.3299152,35.6232137 51.3617977,35.686012 C51.3958062,35.7507101 51.4340666,35.8173129 51.4702004,35.8839158 C51.5042089,35.946714 51.5382196,36.0095073 51.5743534,36.0723056 C51.6126171,36.1389084 51.655126,36.2074111 51.6955107,36.274014 C51.7316467,36.3368073 51.7699033,36.3977008 51.8081631,36.460499 C51.8506764,36.5271019 51.8953113,36.5937047 51.9399473,36.6622074 C51.980333,36.7231009 52.0207161,36.7858943 52.0632267,36.8486925 C52.1099897,36.9133906 52.1567511,36.9799934 52.2056378,37.0465963 L52.2056378,37.0465963 L52.3437993,37.2368908 C52.3926845,37.3034937 52.4458247,37.3681918 52.4968375,37.4347946 C52.545728,37.4994927 52.5946132,37.5622861 52.6456259,37.6250843 C52.6987608,37.6916872 52.7582783,37.7563853 52.8135407,37.8229881 C52.866681,37.8857815 52.9176937,37.9466749 52.9729561,38.0094732 C53.0303461,38.076076 53.0941134,38.1426789 53.1557531,38.2092817 L53.1557531,38.2092817 L53.3257954,38.3919621 C53.3916903,38.4623696 53.4618294,38.5308772 53.5319739,38.5993799 C53.5893639,38.6564639 53.6446263,38.7135527 53.7041438,38.7706416 C53.7827878,38.8429538 53.8635593,38.9171659 53.9443307,38.9894781 C54.0272244,39.065595 54.110118,39.1417118 54.1972668,39.2159239 C54.3099192,39.3129735 54.4225716,39.4100231 54.5416012,39.5070727 C54.6011133,39.5565474 54.6670082,39.6041223 54.7286478,39.653597 C54.8200463,39.7259092 54.9093172,39.7982214 55.0049654,39.8686289 C55.0751099,39.9200084 55.1495041,39.9732877 55.2217708,40.0246672 C55.3131692,40.0912701 55.4024401,40.1578729 55.4980883,40.222571 C55.5746101,40.2739505 55.6553816,40.32533 55.7318979,40.3767094 C55.8275461,40.4414075 55.9231997,40.5061056 56.0230975,40.5689039 C56.1059966,40.6202833 56.1910178,40.6697581 56.2739114,40.7211376 C56.3759369,40.7839309 56.4779623,40.8467291 56.5821153,40.9076226 C56.6692641,40.9589972 56.7606625,41.0084768 56.8499334,41.0579515 C56.9562085,41.118845 57.0603615,41.1778386 57.1708864,41.2368273 C57.264407,41.2863021 57.3621827,41.3338769 57.4578309,41.3833517 C57.5683611,41.4404356 57.678886,41.4994292 57.7936659,41.5546133 C57.8914417,41.6021833 57.9934671,41.6478554 58.0933649,41.6954283 C58.2123946,41.7506124 58.3293022,41.8057965 58.4525815,41.8609806 C58.554607,41.9066507 58.6608821,41.9504161 58.7671572,41.9960862 C58.8925642,42.0474657 59.0179657,42.1026498 59.1455002,42.1540292 C59.2539029,42.1977946 59.3665607,42.2396586 59.4770855,42.2834254 C59.6088697,42.3329002 59.740654,42.3861844 59.8766879,42.4356591 C59.9893403,42.4775246 60.1062424,42.5174848 60.2210223,42.5574461 C60.3613059,42.6069208 60.4994674,42.6563975 60.6440007,42.7039704 C60.7630304,42.7439311 60.8863098,42.7819895 61.007467,42.820048 C61.1520003,42.8657181 61.2986612,42.9113882 61.4474496,42.9570583 C61.5728511,42.9951143 61.7025132,43.0312709 61.8300423,43.0674265 C61.9830804,43.1111918 62.1361186,43.1549587 62.2934064,43.1968227 C62.4230631,43.2329788 62.5569748,43.2653293 62.6908812,43.2995816 C62.8524242,43.3395424 63.0139617,43.3814054 63.1797544,43.4194639 C63.3136607,43.4518153 63.4539443,43.4822621 63.5921058,43.5127088 C63.7621482,43.5507697 63.9321906,43.5888261 64.1064827,43.6249818 C64.2467717,43.6554285 64.391305,43.6820687 64.5337162,43.7106126 C64.7143856,43.7467687 64.8929273,43.7810215 65.0757243,43.8133716 C65.2223851,43.8381089 65.3711736,43.8647501 65.5220842,43.8894884 C65.706976,43.9218399 65.8940226,43.9522847 66.0831968,43.9808286 C66.2383626,44.0036612 66.3956504,44.0264968 66.5529382,44.0493313 C66.6677182,44.066458 66.7824982,44.0816814 66.8994003,44.0969047 C67.0162806,40.4661922 67.6922059,35.4937284 70.1323277,31.5090055 C69.5669164,30.8600759 68.9526417,30.2911214 68.2979921,29.8134876 Z M58.998959,8 C64.5147961,8 69.0000007,12.709623 69.0000007,18.4989094 C69.0000007,24.2905406 64.512563,29 58.998959,29 C53.4831738,29 48.9979729,24.290377 49.0000007,18.4989094 C49.0000007,12.7094594 53.4853549,8 58.998959,8 Z M71.0432451,17.5349444 C71.5500897,11.7779893 76.329281,7.51603878 81.9201508,8.04425358 C87.4112615,8.57642147 91.4642838,13.7012637 90.9571484,19.4645983 C90.4804236,24.8999627 86.2044417,29 81.0113618,29 C80.7050221,29 80.3946628,28.9850906 80.0822679,28.9552723 C77.4230475,28.6976021 75.0171975,27.3664191 73.3091416,25.208849 C71.603111,23.05346 70.797789,20.3272446 71.0432451,17.5349444 Z M58.998959,8.79447964 C53.9010174,8.79447964 49.7545711,13.1462323 49.7545711,18.5010906 C49.7545711,23.8539312 53.9011213,28.2077015 58.998959,28.2077015 C64.0969005,28.2077015 68.2433468,23.8538222 68.2433468,18.5010906 C68.2433468,13.1482499 64.0967967,8.79447964 58.998959,8.79447964 Z M80.9889797,8.79396091 C76.1894833,8.79396091 72.2378923,12.5830399 71.7956704,17.6074463 C71.5704985,20.1888014 72.3129531,22.7106011 73.891182,24.7041587 C75.4695667,26.6977708 77.692828,27.9267188 80.1514398,28.1652674 C85.3057792,28.6570865 89.738156,24.7147366 90.204723,19.3921308 C90.6731388,14.0654355 86.9244622,9.32856335 81.8490576,8.83655887 C81.5610493,8.80887033 81.2729788,8.79396091 80.9889797,8.79396091 Z" id="Users-app-logo"></path>
            </g>
        </g>
    </g>
</svg>